<svg width="32" height="32" viewBox="0 0 38 36" fill="none" xmlns="http://www.w3.org/2000/svg">
<path d="M18.9265 0C8.47504 0 0 8.25203 0 18.4317C0 26.5755 5.42302 33.4844 12.9432 35.9217C13.889 36.0923 14.2363 35.5218 14.2363 35.035C14.2363 34.5955 14.2187 33.1434 14.2107 31.6033C8.94514 32.7183 7.83409 29.4286 7.83409 29.4286C6.97315 27.2981 5.73266 26.7318 5.73266 26.7318C4.01553 25.5877 5.86209 25.6112 5.86209 25.6112C7.76269 25.7413 8.76345 27.5106 8.76345 27.5106C10.4515 30.3285 13.191 29.5138 14.2711 29.0429C14.4409 27.8515 14.9315 27.0385 15.4727 26.5782C11.2689 26.112 6.84965 24.5316 6.84965 17.4691C6.84965 15.4569 7.58902 13.8126 8.79982 12.5218C8.60329 12.0575 7.95551 10.1829 8.98314 7.64403C8.98314 7.64403 10.5725 7.14863 14.1893 9.53339C15.6989 9.12487 17.3181 8.92018 18.9265 8.91324C20.535 8.92018 22.1553 9.12487 23.6679 9.53339C27.2804 7.14863 28.8675 7.64403 28.8675 7.64403C29.8977 10.1829 29.2496 12.0575 29.0531 12.5218C30.2666 13.8126 31.0009 15.4568 31.0009 17.4691C31.0009 24.5484 26.5733 26.1073 22.3588 26.5635C23.0376 27.1355 23.6425 28.2573 23.6425 29.9768C23.6425 32.4429 23.6206 34.4278 23.6206 35.035C23.6206 35.5254 23.9612 36.1002 24.9207 35.9192C32.4367 33.4792 37.8529 26.5727 37.8529 18.4317C37.8529 8.25203 29.379 0 18.9265 0Z" fill="#656565"/>
<path d="M7.08865 26.2564C7.04709 26.3479 6.89894 26.3754 6.76431 26.3126C6.62701 26.2525 6.54982 26.1276 6.59435 26.0357C6.63517 25.9414 6.78331 25.9151 6.92032 25.9784C7.05792 26.0384 7.1363 26.1645 7.08865 26.2564V26.2564ZM8.01965 27.0653C7.9294 27.1469 7.75291 27.109 7.63312 26.9802C7.50932 26.8517 7.48616 26.68 7.57775 26.5971C7.67082 26.5157 7.84197 26.5538 7.96606 26.6824C8.08986 26.8124 8.11391 26.9831 8.0195 27.0655L8.01965 27.0653ZM8.65838 28.1004C8.5423 28.1789 8.35259 28.1053 8.23548 27.9414C8.11955 27.7776 8.11955 27.581 8.238 27.5022C8.35556 27.4234 8.5423 27.4942 8.66105 27.6569C8.77683 27.8235 8.77683 28.0201 8.65823 28.1005L8.65838 28.1004ZM9.73841 29.2992C9.63465 29.4105 9.41377 29.3807 9.25198 29.2286C9.08662 29.08 9.04045 28.8691 9.14451 28.7577C9.24945 28.6461 9.47166 28.6774 9.63465 28.8282C9.79897 28.9765 9.84914 29.189 9.73855 29.2992H9.73841ZM11.1343 29.7039C11.0887 29.8482 10.8759 29.9138 10.6615 29.8525C10.4475 29.7894 10.3074 29.6202 10.3506 29.4744C10.3951 29.3291 10.6088 29.2607 10.8248 29.3264C11.0386 29.3892 11.179 29.5571 11.1345 29.7039H11.1343ZM12.7232 29.8755C12.7285 30.0276 12.5467 30.1537 12.3217 30.1564C12.0953 30.1612 11.9123 30.0382 11.9099 29.8887C11.9099 29.7352 12.0876 29.6103 12.3138 29.6067C12.5388 29.6023 12.7232 29.7245 12.7232 29.8755V29.8755ZM14.2839 29.8173C14.3109 29.9656 14.1544 30.1179 13.931 30.1584C13.7113 30.1975 13.508 30.106 13.4799 29.9589C13.4526 29.8069 13.612 29.6546 13.8313 29.6152C14.0551 29.5773 14.2554 29.6665 14.2839 29.8173" fill="#656565"/>
</svg>
