<svg width="36" height="36" viewBox="0 0 36 36" fill="none" xmlns="http://www.w3.org/2000/svg">
<path d="M2.45461 32.042H8.18184V18.133L0 11.9966V29.5876C0 30.9437 1.09842 32.0422 2.45461 32.0422V32.042Z" fill="#4285F4"/>
<path d="M27.8182 32.042H33.5454C34.9015 32.042 35.9999 30.9436 35.9999 29.5875V11.9966L27.8182 18.133V32.042Z" fill="#34A853"/>
<path d="M27.8182 7.4965V18.1327L35.9999 11.9964V8.72379C35.9999 5.69041 32.5371 3.95794 30.1091 5.77837L27.8182 7.4965Z" fill="#FBBC04"/>
<path fill-rule="evenodd" clip-rule="evenodd" d="M8.18184 18.133V7.49658L18 14.8603L27.8182 7.49658V18.133L18 25.4966L8.18184 18.133Z" fill="#EA4335"/>
<path d="M0 8.72381V11.9965L8.18184 18.1328V7.49652L5.89092 5.77838C3.46289 3.95794 0 5.69042 0 8.72367V8.72381Z" fill="#C5221F"/>
</svg>
