<svg width="40" height="40" viewBox="0 0 38 38" fill="none" xmlns="http://www.w3.org/2000/svg">
<path fill-rule="evenodd" clip-rule="evenodd" d="M19 0.38208C29.4263 0.38208 37.8785 8.71768 37.8785 19.0001C37.8785 29.2826 29.4263 37.6182 19 37.6182C8.5738 37.6182 0.121628 29.2826 0.121628 19.0001C0.121628 8.71768 8.5738 0.38208 19 0.38208Z" fill="url(#paint0_linear_18_39)"/>
<path d="M21.4529 37.4617V23.0808H25.5639L26.1088 18.0194H21.4529L21.4598 15.4859C21.4598 14.1658 21.587 13.4588 23.5097 13.4588H26.08V8.39648H21.9681C17.029 8.39648 15.2909 10.8517 15.2909 14.9812V18.0198H12.212V23.0816H15.2909V37.2578C16.4903 37.4935 17.7304 37.618 19 37.618C19.8202 37.618 20.6396 37.5658 21.4529 37.4617Z" fill="white"/>
<defs>
<linearGradient id="paint0_linear_18_39" x1="19" y1="0.0428404" x2="19" y2="39.206" gradientUnits="userSpaceOnUse">
<stop stop-color="#00B2FF"/>
<stop offset="1" stop-color="#006AFF"/>
</linearGradient>
</defs>
</svg>
