<svg width="40" height="40" viewBox="0 0 36 36" fill="none" xmlns="http://www.w3.org/2000/svg">
<path d="M0 2.64049C0 1.22277 1.19166 0.0720215 2.66062 0.0720215H33.3394C34.8089 0.0720215 36 1.22277 36 2.64049V33.36C36 34.7781 34.8089 35.928 33.3394 35.928H2.66062C1.1918 35.928 0 34.7783 0 33.3604V2.64007V2.64049Z" fill="#006699"/>
<path d="M10.9401 30.0789V13.9364H5.553V30.0789H10.9406H10.9401ZM8.24766 11.7328C10.1258 11.7328 11.2951 10.4932 11.2951 8.94413C11.26 7.35974 10.1258 6.15479 8.28338 6.15479C6.43964 6.15479 5.23547 7.35974 5.23547 8.94399C5.23547 10.4931 6.40435 11.7326 8.21236 11.7326H8.24724L8.24766 11.7328ZM13.9219 30.0789H19.3085V21.0651C19.3085 20.5833 19.3437 20.1002 19.486 19.7561C19.8752 18.7918 20.7616 17.7936 22.2501 17.7936C24.1989 17.7936 24.979 19.2737 24.979 21.444V30.0789H30.3655V20.8232C30.3655 15.8652 27.7082 13.5579 24.164 13.5579C21.2583 13.5579 19.9821 15.1755 19.2731 16.2772H19.309V13.9369H13.9222C13.9925 15.4513 13.9217 30.0794 13.9217 30.0794L13.9219 30.0789Z" fill="white"/>
</svg>
