<svg width="30" height="36" viewBox="0 0 30 36" fill="none" xmlns="http://www.w3.org/2000/svg">
<g clip-path="url(#clip0_9_70)">
<path opacity="0.8" d="M2.51197 32.2715L-3.8147e-05 0.996803L29.9999 1.05965L27.3437 32.2715L15.1132 35.8793L2.51197 32.2715Z" fill="#1B73BA"/>
<path opacity="0.8" d="M15.1132 32.859V3.97536L27.4674 4.01726L25.2644 29.8594L15.1132 32.859Z" fill="#1C88C7"/>
<path opacity="0.8" d="M24.3994 7.66721H5.39471L5.90954 11.4426H14.9279L6.05374 15.3232L6.56833 18.9729H19.6432L19.1695 24.0698L14.7426 24.9509L10.7277 23.9022L10.4187 21.0075H6.73309L7.22712 27.0277L15.1338 29.272L22.7112 26.8179L23.6789 15.0504H15.6689L24.3991 11.3588L24.3994 7.66721Z" fill="white"/>
</g>
<defs>
<clipPath id="clip0_9_70">
<rect width="30" height="35" fill="white" transform="translate(0 0.938095)"/>
</clipPath>
</defs>
</svg>
