<svg width="26" height="39" viewBox="0 0 26 39" fill="none" xmlns="http://www.w3.org/2000/svg">
<g clip-path="url(#clip0_9_77)">
<path opacity="0.8" d="M6.5013 38.8762C10.0886 38.8762 13 35.9734 13 32.3968V25.9174H6.5013C2.91402 25.9174 0.00260162 28.8202 0.00260162 32.3968C0.00260162 35.9734 2.91402 38.8762 6.5013 38.8762Z" fill="#0ACF83"/>
<path opacity="0.8" d="M0.00260162 19.4381C0.00260162 15.8615 2.91402 12.9587 6.5013 12.9587H13V25.9174H6.5013C2.91402 25.9174 0.00260162 23.0147 0.00260162 19.4381Z" fill="#A259FF"/>
<path opacity="0.8" d="M0.00262451 6.47936C0.00262451 2.90275 2.91404 0 6.50133 0H13V12.9587H6.50133C2.91404 12.9587 0.00262451 10.056 0.00262451 6.47936Z" fill="#F24E1E"/>
<path opacity="0.8" d="M13 0H19.4987C23.086 0 25.9974 2.90275 25.9974 6.47936C25.9974 10.056 23.086 12.9587 19.4987 12.9587H13V0Z" fill="#FF7262"/>
<path opacity="0.8" d="M25.9974 19.4381C25.9974 23.0147 23.086 25.9174 19.4987 25.9174C15.9114 25.9174 13 23.0147 13 19.4381C13 15.8615 15.9114 12.9587 19.4987 12.9587C23.086 12.9587 25.9974 15.8615 25.9974 19.4381Z" fill="#1ABCFE"/>
</g>
<defs>
<clipPath id="clip0_9_77">
<rect width="26" height="38.8762" fill="white"/>
</clipPath>
</defs>
</svg>
