<svg width="30" height="36" viewBox="0 0 30 36" fill="none" xmlns="http://www.w3.org/2000/svg">
<g clip-path="url(#clip0_9_74)">
<path d="M0 0.938095H30V35.9381H0V0.938095Z" fill="white" fill-opacity="0.8"/>
<path d="M27.5447 27.5907C27.3251 25.9937 26.4325 24.6529 23.789 23.402C22.8707 22.9096 21.847 22.5569 21.5418 21.7451C21.4335 21.2727 21.4192 21.0065 21.4877 20.7204C21.6844 19.7922 22.634 19.5027 23.3869 19.7689C23.8717 19.9585 24.3308 20.3944 24.6074 21.0897C25.9021 20.1116 25.8992 20.1182 26.8032 19.4462C26.4724 18.8473 26.2956 18.5712 26.0789 18.315C25.3004 17.3003 24.2396 16.778 22.5428 16.8179C22.2491 16.8611 21.9525 16.9077 21.6588 16.951C20.8118 17.2005 20.0048 17.7195 19.5314 18.4148C18.1112 20.2946 18.5162 23.585 20.2443 24.9391C21.9468 26.4296 24.4477 26.7689 24.7671 28.1629C25.078 29.8697 23.6921 30.4219 22.3147 30.2257C21.2994 29.9795 20.7348 29.3773 20.1245 28.2827C19.001 29.0413 19.001 29.0413 17.8461 29.8165C18.1198 30.5151 18.4078 30.8312 18.867 31.4367C21.04 34.0085 26.4781 33.882 27.4534 29.9895C27.4933 29.8563 27.7557 28.9647 27.5447 27.5907ZM16.309 17.0241H13.5029C13.5029 19.8521 13.4915 22.6601 13.4915 25.488C13.4915 27.2879 13.5714 28.9381 13.3204 29.4438C12.9098 30.4385 11.8461 30.3155 11.3613 30.1225C10.868 29.8397 10.617 29.4371 10.3261 28.8682C10.2463 28.7052 10.1864 28.5788 10.1664 28.5688C9.40503 29.1111 8.64645 29.6567 7.88504 30.199C8.26435 31.1073 8.82325 31.8958 9.53903 32.4081C10.6084 33.1567 12.0457 33.3863 13.5486 32.9837C14.5267 32.651 15.3708 31.9623 15.8128 30.9143C16.4516 29.5403 16.3147 27.8768 16.309 26.037C16.3232 23.036 16.309 20.0351 16.309 17.0241Z" fill="#323330" fill-opacity="0.8"/>
</g>
<defs>
<clipPath id="clip0_9_74">
<rect width="30" height="35" fill="white" transform="translate(0 0.938095)"/>
</clipPath>
</defs>
</svg>
