<svg width="44" height="32" viewBox="0 0 48 32" fill="none" xmlns="http://www.w3.org/2000/svg">
<path d="M18.3399 31.9999C31.7733 31.9999 39.1196 20.9814 39.1196 11.4264C39.1196 11.1135 39.1132 10.802 39.0989 10.4918C40.5284 9.46776 41.762 8.19984 42.742 6.74748C41.4334 7.32348 40.0252 7.71116 38.5479 7.88595C40.0558 6.9908 41.2133 5.57463 41.7595 3.88657C40.3259 4.72859 38.7575 5.32217 37.1219 5.64172C35.7892 4.23622 33.8919 3.35718 31.7909 3.35718C27.7578 3.35718 24.4872 6.59538 24.4872 10.587C24.4872 11.1545 24.5514 11.7063 24.6767 12.2357C18.6067 11.9333 13.2244 9.05601 9.62219 4.6809C8.97341 5.78439 8.63216 7.03853 8.63329 8.31524C8.63329 10.8239 9.9226 13.0385 11.8833 14.3342C10.7235 14.2991 9.5892 13.9889 8.5757 13.4298C8.57461 13.4601 8.57461 13.4897 8.57461 13.5221C8.57461 17.0239 11.092 19.9477 14.4338 20.6102C13.8062 20.7794 13.1585 20.865 12.508 20.8646C12.0382 20.8646 11.5804 20.8189 11.1354 20.7343C12.0652 23.6073 14.7613 25.698 17.9579 25.7565C15.4582 27.6962 12.3094 28.8516 8.8871 28.8516C8.30492 28.8521 7.72322 28.8186 7.14502 28.7514C10.3773 30.8026 14.2152 31.9994 18.3403 31.9994" fill="#656565"/>
</svg>
